<?xml version="1.0" standalone="no"?>
<svg xmlns:xlink="http://www.w3.org/1999/xlink" id="wave" style="transform:rotate(180deg); transition: 0.3s" viewBox="0 0 1440 100" version="1.1" xmlns="http://www.w3.org/2000/svg"><defs><linearGradient id="sw-gradient-0" x1="0" x2="0" y1="1" y2="0"><stop stop-color="#61fafa" offset="0%"/><stop stop-color="#61fafa" offset="100%"/></linearGradient></defs><path style="transform:translate(0, 0px); opacity:1" fill="url(#sw-gradient-0)" d="M0,20L40,30C80,40,160,60,240,61.7C320,63,400,47,480,36.7C560,27,640,23,720,31.7C800,40,880,60,960,58.3C1040,57,1120,33,1200,21.7C1280,10,1360,10,1440,11.7C1520,13,1600,17,1680,23.3C1760,30,1840,40,1920,40C2000,40,2080,30,2160,25C2240,20,2320,20,2400,26.7C2480,33,2560,47,2640,46.7C2720,47,2800,33,2880,26.7C2960,20,3040,20,3120,21.7C3200,23,3280,27,3360,36.7C3440,47,3520,63,3600,60C3680,57,3760,33,3840,30C3920,27,4000,43,4080,45C4160,47,4240,33,4320,28.3C4400,23,4480,27,4560,35C4640,43,4720,57,4800,56.7C4880,57,4960,43,5040,43.3C5120,43,5200,57,5280,65C5360,73,5440,77,5520,66.7C5600,57,5680,33,5720,21.7L5760,10L5760,100L5720,100C5680,100,5600,100,5520,100C5440,100,5360,100,5280,100C5200,100,5120,100,5040,100C4960,100,4880,100,4800,100C4720,100,4640,100,4560,100C4480,100,4400,100,4320,100C4240,100,4160,100,4080,100C4000,100,3920,100,3840,100C3760,100,3680,100,3600,100C3520,100,3440,100,3360,100C3280,100,3200,100,3120,100C3040,100,2960,100,2880,100C2800,100,2720,100,2640,100C2560,100,2480,100,2400,100C2320,100,2240,100,2160,100C2080,100,2000,100,1920,100C1840,100,1760,100,1680,100C1600,100,1520,100,1440,100C1360,100,1280,100,1200,100C1120,100,1040,100,960,100C880,100,800,100,720,100C640,100,560,100,480,100C400,100,320,100,240,100C160,100,80,100,40,100L0,100Z"/></svg>